<svg id="visual" viewBox="0 0 2560 1440" width="2560" height="1440" xmlns="http://www.w3.org/2000/svg" xmlnsXlink="http://www.w3.org/1999/xlink" version="1.1">
<path d="M0 979L61 964.2C122 949.3 244 919.7 365.8 931.7C487.7 943.7 609.3 997.3 731.2 1001.8C853 1006.3 975 961.7 1097 945.5C1219 929.3 1341 941.7 1463 935.8C1585 930 1707 906 1828.8 899.8C1950.7 893.7 2072.3 905.3 2194.2 922C2316 938.7 2438 960.3 2499 971.2L2560 982L2560 1441L2499 1441C2438 1441 2316 1441 2194.2 1441C2072.3 1441 1950.7 1441 1828.8 1441C1707 1441 1585 1441 1463 1441C1341 1441 1219 1441 1097 1441C975 1441 853 1441 731.2 1441C609.3 1441 487.7 1441 365.8 1441C244 1441 122 1441 61 1441L0 1441Z" fill="#f28c18"></path><path d="M0 1052L61 1063.3C122 1074.7 244 1097.3 365.8 1094.5C487.7 1091.7 609.3 1063.3 731.2 1061.2C853 1059 975 1083 1097 1091C1219 1099 1341 1091 1463 1078C1585 1065 1707 1047 1828.8 1045.5C1950.7 1044 2072.3 1059 2194.2 1052.7C2316 1046.3 2438 1018.7 2499 1004.8L2560 991L2560 1441L2499 1441C2438 1441 2316 1441 2194.2 1441C2072.3 1441 1950.7 1441 1828.8 1441C1707 1441 1585 1441 1463 1441C1341 1441 1219 1441 1097 1441C975 1441 853 1441 731.2 1441C609.3 1441 487.7 1441 365.8 1441C244 1441 122 1441 61 1441L0 1441Z" fill="#f65c45"></path><path d="M0 1053L61 1076.2C122 1099.3 244 1145.7 365.8 1146.8C487.7 1148 609.3 1104 731.2 1096.8C853 1089.7 975 1119.3 1097 1135C1219 1150.7 1341 1152.3 1463 1157.8C1585 1163.3 1707 1172.7 1828.8 1175C1950.7 1177.3 2072.3 1172.7 2194.2 1157C2316 1141.3 2438 1114.7 2499 1101.3L2560 1088L2560 1441L2499 1441C2438 1441 2316 1441 2194.2 1441C2072.3 1441 1950.7 1441 1828.8 1441C1707 1441 1585 1441 1463 1441C1341 1441 1219 1441 1097 1441C975 1441 853 1441 731.2 1441C609.3 1441 487.7 1441 365.8 1441C244 1441 122 1441 61 1441L0 1441Z" fill="#e2346b"></path><path d="M0 1188L61 1191.2C122 1194.3 244 1200.7 365.8 1214C487.7 1227.3 609.3 1247.7 731.2 1256.2C853 1264.7 975 1261.3 1097 1244.8C1219 1228.3 1341 1198.7 1463 1197.2C1585 1195.7 1707 1222.3 1828.8 1223C1950.7 1223.7 2072.3 1198.3 2194.2 1202C2316 1205.7 2438 1238.3 2499 1254.7L2560 1271L2560 1441L2499 1441C2438 1441 2316 1441 2194.2 1441C2072.3 1441 1950.7 1441 1828.8 1441C1707 1441 1585 1441 1463 1441C1341 1441 1219 1441 1097 1441C975 1441 853 1441 731.2 1441C609.3 1441 487.7 1441 365.8 1441C244 1441 122 1441 61 1441L0 1441Z" fill="#b42c8b"></path><path d="M0 1374L61 1355.7C122 1337.3 244 1300.7 365.8 1298.5C487.7 1296.3 609.3 1328.7 731.2 1340.5C853 1352.3 975 1343.7 1097 1331.5C1219 1319.3 1341 1303.7 1463 1310C1585 1316.3 1707 1344.7 1828.8 1359.2C1950.7 1373.7 2072.3 1374.3 2194.2 1355.8C2316 1337.3 2438 1299.7 2499 1280.8L2560 1262L2560 1441L2499 1441C2438 1441 2316 1441 2194.2 1441C2072.3 1441 1950.7 1441 1828.8 1441C1707 1441 1585 1441 1463 1441C1341 1441 1219 1441 1097 1441C975 1441 853 1441 731.2 1441C609.3 1441 487.7 1441 365.8 1441C244 1441 122 1441 61 1441L0 1441Z" fill="#6d399c"></path></svg>