<svg id="visual" viewBox="0 0 2560 1440" width="2560" height="1440" xmlns="http://www.w3.org/2000/svg" xmlns:xlink="http://www.w3.org/1999/xlink" version="1.1"><path d="M1744 1440L1717.7 1405.7C1691.3 1371.3 1638.7 1302.7 1660 1234.2C1681.3 1165.7 1776.7 1097.3 1784.5 1028.8C1792.3 960.3 1712.7 891.7 1684 823C1655.3 754.3 1677.7 685.7 1667.3 617C1657 548.3 1614 479.7 1602.8 411.2C1591.7 342.7 1612.3 274.3 1642 205.8C1671.7 137.3 1710.3 68.7 1729.7 34.3L1749 0L2560 0L2560 34.3C2560 68.7 2560 137.3 2560 205.8C2560 274.3 2560 342.7 2560 411.2C2560 479.7 2560 548.3 2560 617C2560 685.7 2560 754.3 2560 823C2560 891.7 2560 960.3 2560 1028.8C2560 1097.3 2560 1165.7 2560 1234.2C2560 1302.7 2560 1371.3 2560 1405.7L2560 1440Z" fill="#f28c18"></path><path d="M1874 1440L1894 1405.7C1914 1371.3 1954 1302.7 1949 1234.2C1944 1165.7 1894 1097.3 1890 1028.8C1886 960.3 1928 891.7 1942 823C1956 754.3 1942 685.7 1919.2 617C1896.3 548.3 1864.7 479.7 1862 411.2C1859.3 342.7 1885.7 274.3 1874.3 205.8C1863 137.3 1814 68.7 1789.5 34.3L1765 0L2560 0L2560 34.3C2560 68.7 2560 137.3 2560 205.8C2560 274.3 2560 342.7 2560 411.2C2560 479.7 2560 548.3 2560 617C2560 685.7 2560 754.3 2560 823C2560 891.7 2560 960.3 2560 1028.8C2560 1097.3 2560 1165.7 2560 1234.2C2560 1302.7 2560 1371.3 2560 1405.7L2560 1440Z" fill="#f65c45"></path><path d="M1875 1440L1916.2 1405.7C1957.3 1371.3 2039.7 1302.7 2041.7 1234.2C2043.7 1165.7 1965.3 1097.3 1952.7 1028.8C1940 960.3 1993 891.7 2020.8 823C2048.7 754.3 2051.3 685.7 2061.2 617C2071 548.3 2088 479.7 2092.3 411.2C2096.7 342.7 2088.3 274.3 2060.3 205.8C2032.3 137.3 1984.7 68.7 1960.8 34.3L1937 0L2560 0L2560 34.3C2560 68.7 2560 137.3 2560 205.8C2560 274.3 2560 342.7 2560 411.2C2560 479.7 2560 548.3 2560 617C2560 685.7 2560 754.3 2560 823C2560 891.7 2560 960.3 2560 1028.8C2560 1097.3 2560 1165.7 2560 1234.2C2560 1302.7 2560 1371.3 2560 1405.7L2560 1440Z" fill="#e2346b"></path><path d="M2115 1440L2120.7 1405.7C2126.3 1371.3 2137.7 1302.7 2161.3 1234.2C2185 1165.7 2221 1097.3 2236 1028.8C2251 960.3 2245 891.7 2215.7 823C2186.3 754.3 2133.7 685.7 2131.2 617C2128.7 548.3 2176.3 479.7 2177.3 411.2C2178.3 342.7 2132.7 274.3 2139.2 205.8C2145.7 137.3 2204.3 68.7 2233.7 34.3L2263 0L2560 0L2560 34.3C2560 68.7 2560 137.3 2560 205.8C2560 274.3 2560 342.7 2560 411.2C2560 479.7 2560 548.3 2560 617C2560 685.7 2560 754.3 2560 823C2560 891.7 2560 960.3 2560 1028.8C2560 1097.3 2560 1165.7 2560 1234.2C2560 1302.7 2560 1371.3 2560 1405.7L2560 1440Z" fill="#b42c8b"></path><path d="M2445 1440L2412.5 1405.7C2380 1371.3 2315 1302.7 2311.3 1234.2C2307.7 1165.7 2365.3 1097.3 2386.3 1028.8C2407.3 960.3 2391.7 891.7 2369.8 823C2348 754.3 2320 685.7 2331.2 617C2342.3 548.3 2392.7 479.7 2418.5 411.2C2444.3 342.7 2445.7 274.3 2413 205.8C2380.3 137.3 2313.7 68.7 2280.3 34.3L2247 0L2560 0L2560 34.3C2560 68.7 2560 137.3 2560 205.8C2560 274.3 2560 342.7 2560 411.2C2560 479.7 2560 548.3 2560 617C2560 685.7 2560 754.3 2560 823C2560 891.7 2560 960.3 2560 1028.8C2560 1097.3 2560 1165.7 2560 1234.2C2560 1302.7 2560 1371.3 2560 1405.7L2560 1440Z" fill="#6d399c"></path></svg>